<svg width="600" height="459" viewBox="0 0 600 459" fill="none" xmlns="http://www.w3.org/2000/svg">
<path d="M600 246.388C600 213.164 586.506 186.325 569.804 186.325C553.101 186.325 539.608 213.166 539.608 245.114V349.909L307.679 349.9V245.106C307.038 211.882 293.545 186.316 277.484 186.316C260.781 186.316 247.288 213.157 247.288 246.379C247.288 274.493 256.923 298.776 270.416 305.168V458.517L307.679 458.526V426.578H538.966V458.526H576.87V305.177C589.718 298.786 600 274.505 600 246.388Z" fill="#1122B6"/>
<path d="M313.461 239.998V339.677H420.753L420.757 130.097C416.903 116.039 409.195 105.814 400.842 105.814H317.962C305.754 105.814 295.473 126.263 295.473 150.546V186.328C305.754 196.552 312.821 215.718 313.462 240L313.461 239.998Z" fill="#1122B6"/>
<path d="M533.183 239.998C533.824 215.715 540.892 196.551 551.172 187.601V151.819C551.172 127.536 540.892 107.087 528.684 107.087L445.808 107.096C436.814 107.096 429.747 117.32 425.893 131.379V340.959H533.185L533.183 239.998Z" fill="#1122B6"/>
<path d="M568.648 0V269.594H514.575V94.242L442.348 269.594H401.407L328.794 94.242V269.594H274.721V0H336.133L421.877 200.457L507.622 0H568.648Z" fill="#1122B6"/>
<path d="M88.5429 380.418H234.006V450.62H0V9.17051H88.5429V380.418Z" fill="#1122B6"/>
</svg>
