<svg width="110" height="40" viewBox="0 0 1091 234" fill="none" xmlns="http://www.w3.org/2000/svg">
<path d="M25.2 183.02H66.6V203H0V77.36H25.2V183.02Z" fill="#1122B6"/>
<path d="M166.317 150.98C166.317 154.58 166.077 157.82 165.597 160.7H92.6972C93.2972 167.9 95.8172 173.54 100.257 177.62C104.697 181.7 110.157 183.74 116.637 183.74C125.997 183.74 132.657 179.72 136.617 171.68H163.797C160.917 181.28 155.397 189.2 147.237 195.44C139.077 201.56 129.057 204.62 117.177 204.62C107.577 204.62 98.9372 202.52 91.2572 198.32C83.6972 194 77.7572 187.94 73.4372 180.14C69.2372 172.34 67.1372 163.34 67.1372 153.14C67.1372 142.82 69.2372 133.76 73.4372 125.96C77.6372 118.16 83.5172 112.16 91.0772 107.96C98.6372 103.76 107.337 101.66 117.177 101.66C126.657 101.66 135.117 103.7 142.557 107.78C150.117 111.86 155.937 117.68 160.017 125.24C164.217 132.68 166.317 141.26 166.317 150.98ZM140.217 143.78C140.097 137.3 137.757 132.14 133.197 128.3C128.637 124.34 123.057 122.36 116.457 122.36C110.217 122.36 104.937 124.28 100.617 128.12C96.4172 131.84 93.8372 137.06 92.8772 143.78H140.217Z" fill="#1122B6"/>
<path d="M169.231 152.78C169.231 142.7 171.211 133.76 175.171 125.96C179.251 118.16 184.711 112.16 191.551 107.96C198.511 103.76 206.251 101.66 214.771 101.66C222.211 101.66 228.691 103.16 234.211 106.16C239.851 109.16 244.351 112.94 247.711 117.5V103.28H273.091V203H247.711V188.42C244.471 193.1 239.971 197 234.211 200.12C228.571 203.12 222.031 204.62 214.591 204.62C206.191 204.62 198.511 202.46 191.551 198.14C184.711 193.82 179.251 187.76 175.171 179.96C171.211 172.04 169.231 162.98 169.231 152.78ZM247.711 153.14C247.711 147.02 246.511 141.8 244.111 137.48C241.711 133.04 238.471 129.68 234.391 127.4C230.311 125 225.931 123.8 221.251 123.8C216.571 123.8 212.251 124.94 208.291 127.22C204.331 129.5 201.091 132.86 198.571 137.3C196.171 141.62 194.971 146.78 194.971 152.78C194.971 158.78 196.171 164.06 198.571 168.62C201.091 173.06 204.331 176.48 208.291 178.88C212.371 181.28 216.691 182.48 221.251 182.48C225.931 182.48 230.311 181.34 234.391 179.06C238.471 176.66 241.711 173.3 244.111 168.98C246.511 164.54 247.711 159.26 247.711 153.14Z" fill="#1122B6"/>
<path d="M318.043 123.98V172.22C318.043 175.58 318.823 178.04 320.383 179.6C322.063 181.04 324.823 181.76 328.663 181.76H340.363V203H324.523C303.283 203 292.663 192.68 292.663 172.04V123.98H280.783V103.28H292.663V78.62H318.043V103.28H340.363V123.98H318.043Z" fill="#1122B6"/>
<path d="M405.648 101.84C413.208 101.84 419.928 103.52 425.808 106.88C431.688 110.12 436.248 114.98 439.488 121.46C442.848 127.82 444.528 135.5 444.528 144.5V203H419.328V147.92C419.328 140 417.348 133.94 413.388 129.74C409.428 125.42 404.028 123.26 397.188 123.26C390.228 123.26 384.708 125.42 380.628 129.74C376.668 133.94 374.688 140 374.688 147.92V203H349.488V69.8H374.688V115.7C377.928 111.38 382.248 108.02 387.648 105.62C393.048 103.1 399.048 101.84 405.648 101.84Z" fill="#1122B6"/>
<path d="M552.192 150.98C552.192 154.58 551.952 157.82 551.472 160.7H478.572C479.172 167.9 481.692 173.54 486.132 177.62C490.572 181.7 496.032 183.74 502.512 183.74C511.872 183.74 518.532 179.72 522.492 171.68H549.672C546.792 181.28 541.272 189.2 533.112 195.44C524.952 201.56 514.932 204.62 503.052 204.62C493.452 204.62 484.812 202.52 477.132 198.32C469.572 194 463.632 187.94 459.312 180.14C455.112 172.34 453.012 163.34 453.012 153.14C453.012 142.82 455.112 133.76 459.312 125.96C463.512 118.16 469.392 112.16 476.952 107.96C484.512 103.76 493.212 101.66 503.052 101.66C512.532 101.66 520.992 103.7 528.432 107.78C535.992 111.86 541.812 117.68 545.892 125.24C550.092 132.68 552.192 141.26 552.192 150.98ZM526.092 143.78C525.972 137.3 523.632 132.14 519.072 128.3C514.512 124.34 508.932 122.36 502.332 122.36C496.092 122.36 490.812 124.28 486.492 128.12C482.292 131.84 479.712 137.06 478.752 143.78H526.092Z" fill="#1122B6"/>
<path d="M586.786 118.76C590.026 113.48 594.226 109.34 599.386 106.34C604.666 103.34 610.666 101.84 617.386 101.84V128.3H610.726C602.806 128.3 596.806 130.16 592.726 133.88C588.766 137.6 586.786 144.08 586.786 153.32V203H561.586V103.28H586.786V118.76Z" fill="#1122B6"/>
<path d="M872.983 204.62C863.383 204.62 854.743 202.52 847.063 198.32C839.383 194 833.323 187.94 828.883 180.14C824.563 172.34 822.403 163.34 822.403 153.14C822.403 142.94 824.623 133.94 829.063 126.14C833.623 118.34 839.803 112.34 847.603 108.14C855.403 103.82 864.103 101.66 873.703 101.66C883.303 101.66 892.003 103.82 899.803 108.14C907.603 112.34 913.723 118.34 918.163 126.14C922.723 133.94 925.003 142.94 925.003 153.14C925.003 163.34 922.663 172.34 917.983 180.14C913.423 187.94 907.183 194 899.263 198.32C891.463 202.52 882.703 204.62 872.983 204.62ZM872.983 182.66C877.543 182.66 881.803 181.58 885.763 179.42C889.843 177.14 893.083 173.78 895.483 169.34C897.883 164.9 899.083 159.5 899.083 153.14C899.083 143.66 896.563 136.4 891.523 131.36C886.603 126.2 880.543 123.62 873.343 123.62C866.143 123.62 860.083 126.2 855.163 131.36C850.363 136.4 847.963 143.66 847.963 153.14C847.963 162.62 850.303 169.94 854.983 175.1C859.783 180.14 865.783 182.66 872.983 182.66Z" fill="#1122B6"/>
<path d="M959.688 118.76C962.928 113.48 967.128 109.34 972.288 106.34C977.568 103.34 983.568 101.84 990.288 101.84V128.3H983.628C975.708 128.3 969.708 130.16 965.628 133.88C961.668 137.6 959.688 144.08 959.688 153.32V203H934.488V103.28H959.688V118.76Z" fill="#1122B6"/>
<path d="M1090.96 150.98C1090.96 154.58 1090.72 157.82 1090.24 160.7H1017.34C1017.94 167.9 1020.46 173.54 1024.9 177.62C1029.34 181.7 1034.8 183.74 1041.28 183.74C1050.64 183.74 1057.3 179.72 1061.26 171.68H1088.44C1085.56 181.28 1080.04 189.2 1071.88 195.44C1063.72 201.56 1053.7 204.62 1041.82 204.62C1032.22 204.62 1023.58 202.52 1015.9 198.32C1008.34 194 1002.4 187.94 998.082 180.14C993.882 172.34 991.782 163.34 991.782 153.14C991.782 142.82 993.882 133.76 998.082 125.96C1002.28 118.16 1008.16 112.16 1015.72 107.96C1023.28 103.76 1031.98 101.66 1041.82 101.66C1051.3 101.66 1059.76 103.7 1067.2 107.78C1074.76 111.86 1080.58 117.68 1084.66 125.24C1088.86 132.68 1090.96 141.26 1090.96 150.98ZM1064.86 143.78C1064.74 137.3 1062.4 132.14 1057.84 128.3C1053.28 124.34 1047.7 122.36 1041.1 122.36C1034.86 122.36 1029.58 124.28 1025.26 128.12C1021.06 131.84 1018.48 137.06 1017.52 143.78H1064.86Z" fill="#1122B6"/>
<path d="M818.58 125.739C818.58 108.784 811.694 95.0876 803.17 95.0876C794.646 95.0876 787.76 108.785 787.76 125.09V178.569L669.4 178.565V125.085C669.073 108.13 662.187 95.083 653.99 95.083C645.466 95.083 638.58 108.781 638.58 125.735C638.58 140.082 643.497 152.475 650.383 155.737V233.995L669.4 234V217.696H787.432V234H806.776V155.741C813.333 152.48 818.58 140.088 818.58 125.739Z" fill="#1122B6"/>
<path d="M672.35 122.479V173.347H727.104L727.107 66.3923C725.14 59.2183 721.206 54 716.943 54H674.647C668.417 54 663.171 64.4357 663.171 76.8281V95.0888C668.417 100.307 672.024 110.087 672.351 122.48L672.35 122.479Z" fill="#1122B6"/>
<path d="M784.481 122.478C784.808 110.086 788.415 100.306 793.662 95.7385V77.4779C793.662 65.0856 788.415 54.6497 782.185 54.6497L739.891 54.6543C735.301 54.6543 731.695 59.8722 729.728 67.0466V174.002H784.482L784.481 122.478Z" fill="#1122B6"/>
<path d="M802.58 0V137.582H774.985V48.0946L738.125 137.582H717.232L680.175 48.0946V137.582H652.58V0H683.92L727.679 102.3L771.437 0H802.58Z" fill="#1122B6"/>
</svg>
